<?xml version="1.0" encoding="UTF-8"?>
<svg width="752pt" height="752pt" version="1.1" viewBox="0 0 752 752" xmlns="http://www.w3.org/2000/svg">
 <path d="m233.93 205.51c-46.977 0-85.242 38.262-85.242 85.238v104.18c0 46.977 38.262 85.242 85.242 85.242h201.86c-4.2344-8.6719-6.7656-18.273-7.3984-28.414h-194.46c-31.727 0-56.828-25.098-56.828-56.828v-104.18c0-31.727 25.098-56.828 56.828-56.828h217.84c31.727 0 56.828 25.098 56.828 56.828v80.801c10.141 0.63281 19.742 3.1641 28.414 7.3984v-88.199c0-46.977-38.262-85.238-85.242-85.238zm71.48 85.238v105.66c-0.66016 12.449 11.836 16.285 20.57 11.246l85.391-52.09c4.1758-2.5508 6.8086-7.6211 6.8086-12.727s-2.6289-10.176-6.8086-12.727l-85.391-52.09c-10.238-3.8398-21.293-0.24219-20.57 12.727zm27.672 25.305 43.656 26.785-43.656 26.785zm170.78 64.672c-36.445 0-66.297 29.852-66.297 66.297 0 36.445 29.852 66.297 66.297 66.297 13.102 0 25.348-3.8711 35.664-10.508l39.512 39.512c5.5469 5.5469 14.578 5.5469 20.125 0s5.5469-14.578 0-20.125l-39.512-39.512c6.6367-10.316 10.508-22.562 10.508-35.664 0-36.445-29.852-66.297-66.301-66.297zm0 28.414c21.094 0 37.887 16.793 37.887 37.883 0 21.09-16.793 37.883-37.887 37.883-21.09 0-37.887-16.793-37.887-37.883 0-21.09 16.793-37.883 37.887-37.883z"/>
</svg>
